<svg>
  <defs>
    <g id="close">
      <path
        d="M19,6.41L17.59,5L12,10.59L6.41,5L5,6.41L10.59,12L5,17.59L6.41,19L12,13.41L17.59,19L19,17.59L13.41,12L19,6.41Z" />
    </g>
    <g id="chevron-double-right">
      <path
        d="M5.59,7.41L7,6L13,12L7,18L5.59,16.59L10.17,12L5.59,7.41M11.59,7.41L13,6L19,12L13,18L11.59,16.59L16.17,12L11.59,7.41Z" />
    </g>
    <g id="arrow-collapse-up">
      <path d="M4.08,11.92L12,4L19.92,11.92L18.5,13.33L13,7.83V22H11V7.83L5.5,13.33L4.08,11.92M12,4H22V2H2V4H12Z" />
    </g>
    <g id="chevron-double-left">
      <path
        d="M18.41,7.41L17,6L11,12L17,18L18.41,16.59L13.83,12L18.41,7.41M12.41,7.41L11,6L5,12L11,18L12.41,16.59L7.83,12L12.41,7.41Z" />
    </g>
    <g id="arrow-collapse-down">
      <path
        d="M19.92,12.08L12,20L4.08,12.08L5.5,10.67L11,16.17V2H13V16.17L18.5,10.66L19.92,12.08M12,20H2V22H22V20H12Z" />
    </g>
    <g id="error-outline"><path d="M11 15h2v2h-2zm0-8h2v6h-2zm.99-5C6.47 2 2 6.48 2 12s4.47 10 9.99 10C17.52 22 22 17.52 22 12S17.52 2 11.99 2zM12 20c-4.42 0-8-3.58-8-8s3.58-8 8-8 8 3.58 8 8-3.58 8-8 8z"/></g>
    <g id="done-outline"><path d="M0 0h24v24H0V0z" fill="none"/><path d="M19.77 5.03l1.4 1.4L8.43 19.17l-5.6-5.6 1.4-1.4 4.2 4.2L19.77 5.03m0-2.83L8.43 13.54l-4.2-4.2L0 13.57 8.43 22 24 6.43 19.77 2.2z"/></g>
  </defs>
</svg>
